<svg width="32" height="32" viewBox="0 0 32 32" fill="none" xmlns="http://www.w3.org/2000/svg">
<g clip-path="url(#clip0)">
<path d="M23.6673 9.33337L18.6673 4.33337L5.53398 17.4667C5.40065 17.6 5.33398 17.76 5.33398 17.9467V22C5.33398 22.3734 5.62732 22.6667 6.00065 22.6667H10.054C10.2273 22.6667 10.4007 22.6 10.5207 22.4667L23.6673 9.33337ZM27.614 5.3867C28.134 4.8667 28.134 4.0267 27.614 3.5067L24.494 0.386704C23.974 -0.133296 23.134 -0.133296 22.614 0.386704L20.0007 3.00004L25.0007 8.00004L27.614 5.3867Z" fill="white"/>
<path d="M2.66667 26.6666H29.3333C30.8 26.6666 32 27.8666 32 29.3333C32 30.8 30.8 32 29.3333 32H2.66667C1.2 32 0 30.8 0 29.3333C0 27.8666 1.2 26.6666 2.66667 26.6666Z" fill="white"/>
</g>
<defs>
<clipPath id="clip0">
<rect width="32" height="32" fill="white"/>
</clipPath>
</defs>
</svg>
