<svg width="32" height="32" viewBox="0 0 32 32" fill="none" xmlns="http://www.w3.org/2000/svg">
<path d="M25.3333 4.00004H19.76C19.2 2.45337 17.7333 1.33337 16 1.33337C14.2667 1.33337 12.8 2.45337 12.24 4.00004H6.66667C5.2 4.00004 4 5.20004 4 6.66671V25.3334C4 26.8 5.2 28 6.66667 28H25.3333C26.8 28 28 26.8 28 25.3334V6.66671C28 5.20004 26.8 4.00004 25.3333 4.00004ZM16 4.00004C16.7333 4.00004 17.3333 4.60004 17.3333 5.33337C17.3333 6.06671 16.7333 6.66671 16 6.66671C15.2667 6.66671 14.6667 6.06671 14.6667 5.33337C14.6667 4.60004 15.2667 4.00004 16 4.00004ZM12.3867 21.72L8.93333 18.2667C8.41333 17.7467 8.41333 16.9067 8.93333 16.3867C9.45333 15.8667 10.2933 15.8667 10.8133 16.3867L13.3333 18.8934L21.1733 11.0534C21.6933 10.5334 22.5333 10.5334 23.0533 11.0534C23.5733 11.5734 23.5733 12.4134 23.0533 12.9334L14.2667 21.72C13.76 22.24 12.9067 22.24 12.3867 21.72Z" fill="white"/>
</svg>
