<svg width="32" height="32" viewBox="0 0 32 32" fill="none" xmlns="http://www.w3.org/2000/svg">
<path d="M26.666 8.00004H15.9994L14.1194 6.12004C13.6127 5.61337 12.9327 5.33337 12.226 5.33337H5.33268C3.86602 5.33337 2.66602 6.53337 2.66602 8.00004V24C2.66602 25.4667 3.86602 26.6667 5.33268 26.6667H26.666C28.1327 26.6667 29.3327 25.4667 29.3327 24V10.6667C29.3327 9.20004 28.1327 8.00004 26.666 8.00004ZM22.586 21.88L19.9994 20.3734L17.4127 21.88C16.906 22.1734 16.2927 21.72 16.426 21.1467L17.106 18.2134L14.8527 16.2667C14.4127 15.88 14.6394 15.1467 15.226 15.0934L18.1994 14.84L19.3727 12.0934C19.5994 11.56 20.3727 11.56 20.5994 12.0934L21.7727 14.84L24.746 15.0934C25.3327 15.1467 25.5727 15.88 25.1194 16.2667L22.866 18.2134L23.546 21.1467C23.6927 21.72 23.0794 22.1734 22.586 21.88Z" fill="white"/>
</svg>
