<svg width="10" height="13" viewBox="0 0 10 13" fill="none" xmlns="http://www.w3.org/2000/svg">
<g clip-path="url(#clip0)">
<path fill-rule="evenodd" clip-rule="evenodd" d="M8.64302 13H1.35701C1.17794 12.9992 1.00078 12.9631 0.83565 12.8938C0.670519 12.8245 0.520633 12.7234 0.39461 12.5962C0.268588 12.469 0.168863 12.3181 0.101153 12.1523C0.0334438 11.9866 -0.000903364 11.809 1.8059e-05 11.6299V6.28003C-0.00104812 5.91861 0.141181 5.57148 0.395526 5.3147C0.649871 5.05792 0.995595 4.9123 1.35701 4.90992H1.47103V3.57007C1.47235 2.63412 1.84544 1.73705 2.5082 1.07618C3.17095 0.415297 4.06907 0.0445759 5.00502 0.045902C5.94097 0.0472281 6.83804 0.420502 7.49892 1.08326C8.1598 1.74601 8.53034 2.64413 8.52901 3.58008V4.92993H8.64302C9.00187 4.9294 9.34626 5.07138 9.60067 5.32447C9.85507 5.57755 9.99869 5.92118 10 6.28003V11.6299C10.0011 11.9913 9.85886 12.3384 9.60451 12.5952C9.35017 12.852 9.00444 12.9976 8.64302 13ZM7.09999 3.58008C7.09999 3.02313 6.87877 2.4888 6.48494 2.09497C6.09112 1.70115 5.55697 1.47998 5.00002 1.47998C4.44306 1.47998 3.90892 1.70115 3.51509 2.09497C3.12127 2.4888 2.90004 3.02313 2.90004 3.58008V4.92993H7.09999V3.58008Z" fill="#272825"/>
</g>
<defs>
<clipPath id="clip0">
<rect width="10" height="13" fill="white"/>
</clipPath>
</defs>
</svg>
