<svg width="57" height="40" viewBox="0 0 57 40" fill="none" xmlns="http://www.w3.org/2000/svg">
<path fill-rule="evenodd" clip-rule="evenodd" d="M1.90055 0C1.30833 11.2318 10.4768 12.8275 10.4768 12.8275C10.019 0.527843 1.90055 0 1.90055 0Z" fill="#5DE501"/>
<path fill-rule="evenodd" clip-rule="evenodd" d="M50.0548 30.7859C51.9476 30.3323 53.9969 28.8774 55.0606 27.2192C55.9836 25.7801 56.359 24.3878 56.3747 22.4481C56.3747 21.2279 56.2964 20.4614 56.0931 19.7887C54.9355 15.9405 51.7599 13.6096 47.677 13.6096C43.6723 13.6096 40.4499 15.9561 39.3079 19.6948C38.6822 21.7754 38.9638 24.685 39.9962 26.6404C41.8265 30.1132 45.878 31.7871 50.0548 30.7859ZM10.0081 34.29C9.33543 36.4801 7.50901 38.4198 5.16253 39.0299C4.73275 39.2209 3.77822 39.2662 3.09986 39.2724C2.67916 39.2763 2.34675 38.9321 2.34675 38.5114L2.34675 37.3874L2.34676 36.4488C2.34676 36.4488 2.19031 35.3537 2.97248 35.3537C3.75465 35.3537 5.27985 35.2755 6.02291 33.7112C6.26618 33.199 6.26584 32.9803 6.2577 27.8056C6.25589 26.658 6.2537 25.2667 6.2537 23.5744V17.9897H2.97222C2.62664 17.9897 2.34649 17.7096 2.34649 17.364V14.5482C2.34649 14.2026 2.62664 13.9225 2.97222 13.9225H6.2537V13.9225H8.28733H10.321V13.9225H10.3245V17.9897H10.321V23.6057C10.321 32.8039 10.3053 33.3358 10.0081 34.29ZM37.3212 16.926C36.6971 18.1261 35.3917 20.6613 34.0972 23.1754L34.0907 23.188L34.0868 23.1955L34.0809 23.2071L32.9411 25.4203C31.3611 28.5176 29.9845 31.0675 29.9063 31.0988C29.8281 31.1144 29.5152 30.6608 29.218 30.082C29.0391 29.7509 28.6759 29.0463 28.2515 28.2228L28.2513 28.2224L28.2511 28.2222C27.9335 27.606 27.5817 26.9233 27.247 26.2807C26.4804 24.7789 24.744 21.4156 23.3987 18.8188C22.0534 16.222 20.9584 14.0476 20.9584 14.0007C20.9584 13.9538 21.9283 13.9225 23.1171 13.9225L25.2603 13.9381L27.5285 18.7719C28.78 21.4469 29.8437 23.6213 29.8907 23.6213C29.9376 23.6213 30.2348 23.0738 30.5477 22.4168C30.8605 21.7441 31.6114 20.1485 32.2372 18.8501L32.4519 18.3986L32.4523 18.3979C33.0202 17.204 33.667 15.8443 33.9579 15.2209L34.5524 13.9225H36.6798C37.8374 13.9225 38.7917 13.9538 38.7917 13.9851C38.7917 14.0163 38.1347 15.346 37.3212 16.926ZM18.7683 13.9225V22.3698V30.8172H16.8442C15.7804 30.8172 14.8575 30.7703 14.8106 30.7077C14.748 30.6608 14.7011 26.8595 14.7011 22.2603V13.9225H16.7347H18.7683ZM46.3626 27.36C43.5937 26.5622 42.2171 22.8704 43.5624 19.8826C44.3446 18.1305 45.8307 17.1606 47.7079 17.1606C49.5694 17.1606 50.946 18.068 51.8064 19.8513C52.2601 20.7742 52.307 21.0245 52.307 22.2916C52.307 24.0906 51.9159 25.1387 50.8835 26.1712C49.7102 27.3444 47.9112 27.8137 46.3626 27.36Z" fill="black"/>
</svg>
